<?xml version="1.0" encoding="UTF-8" standalone="no"?>
<svg
   xmlns:dc="http://purl.org/dc/elements/1.1/"
   xmlns:cc="http://creativecommons.org/ns#"
   xmlns:rdf="http://www.w3.org/1999/02/22-rdf-syntax-ns#"
   xmlns:svg="http://www.w3.org/2000/svg"
   xmlns="http://www.w3.org/2000/svg"
   xmlns:sodipodi="http://sodipodi.sourceforge.net/DTD/sodipodi-0.dtd"
   xmlns:inkscape="http://www.inkscape.org/namespaces/inkscape"
   height="100px"
   version="1.1"
   viewBox="0 0 160 100"
   width="160px"
   id="svg2"
   inkscape:version="0.92.1 r15371"
   sodipodi:docname="card-logo-amex.svg"
   inkscape:export-filename="C:\Users\c111807\Documents\github\controlle_assets\lib\images\amex.png"
   inkscape:export-xdpi="90"
   inkscape:export-ydpi="90">
  <metadata
     id="metadata14">
    <rdf:RDF>
      <cc:Work
         rdf:about="">
        <dc:format>image/svg+xml</dc:format>
        <dc:type
           rdf:resource="http://purl.org/dc/dcmitype/StillImage" />
      </cc:Work>
    </rdf:RDF>
  </metadata>
  <sodipodi:namedview
     pagecolor="#ffffff"
     bordercolor="#666666"
     borderopacity="1"
     objecttolerance="10"
     gridtolerance="10"
     guidetolerance="10"
     inkscape:pageopacity="0"
     inkscape:pageshadow="2"
     inkscape:window-width="1600"
     inkscape:window-height="837"
     id="namedview12"
     showgrid="false"
     inkscape:zoom="2.5986174"
     inkscape:cx="-113.84231"
     inkscape:cy="46.39108"
     inkscape:window-x="-8"
     inkscape:window-y="-8"
     inkscape:window-maximized="1"
     inkscape:current-layer="svg2" />
  <title
     id="title4" />
  <defs
     id="defs6" />
  <rect
     style="fill:#306fc5;fill-opacity:1"
     id="rect3342"
     width="161.63266"
     height="101.22449"
     x="-1.0884435"
     y="-1.2244898" />
  <g
     style="fill:none;fill-rule:evenodd;stroke:none;stroke-width:1"
     transform="matrix(1.0063488,0,0,0.99999999,-1.0160627,-0.9115642)"
     id="g3344">
    <g
       transform="translate(-1)"
       id="g3346">
      <path
         style="fill:#306fc5"
         inkscape:connector-curvature="0"
         id="path3348"
         d="m 149,1.0114669e-6 c -8,7.54979e-7 -92.699219,-2.6146506e-6 -140,0 C 5,1.2325753e-6 1,4.000001 1,8.000001 v 80 c -4.6e-7,8 4,11.999999 12,11.999999 44.62321,0 128,0 136,0 8,0 12,-3.999999 12,-11.999999 v -76 C 161,4.000001 157,1.0114669e-6 149,1.0114669e-6 Z m 0,0" />
      <path
         style="fill:#ffffff"
         inkscape:connector-curvature="0"
         id="path3350"
         d="M 14.519828,36.625336 11.421046,29.07434 8.3399746,36.625336 Z m 68.265761,-3.006801 c -0.622157,0.377635 -1.358003,0.390204 -2.239533,0.390204 H 75.04606 v -4.207122 h 5.574837 c 0.788978,0 1.612235,0.03542 2.146981,0.341642 0.587306,0.275943 0.950659,0.863249 0.950659,1.674508 0,0.827828 -0.345643,1.493974 -0.932948,1.800768 0,0 0.587305,-0.306794 0,0 z m 39.236381,3.006801 -3.13306,-7.550996 -3.11592,7.550996 z m -73.139024,8.173152 h -4.641317 l -0.01714,-14.83462 -6.564916,14.83462 h -3.975171 l -6.582055,-14.84776 v 14.84776 H 17.893982 L 16.154345,40.573655 H 6.7277395 L 4.9703918,44.798488 H 0.05313177 L 8.1605835,25.857296 H 14.88718 l 7.700108,17.933402 V 25.857296 h 7.389316 l 5.92505,12.84932 5.442865,-12.84932 h 7.537856 v 18.941192 0 z m 18.498427,0 H 52.257099 V 25.857296 h 15.124274 v 3.944321 H 56.784726 v 3.414144 H 67.12714 V 37.09838 H 56.784726 v 3.78264 h 10.596647 z m 21.324695,-13.83997 c 0,3.019941 -2.01558,4.580187 -3.190192,5.048661 0.990651,0.377064 1.83676,1.043211 2.239533,1.595096 0.639295,0.942089 0.749558,1.783628 0.749558,3.475275 v 3.720938 h -4.566476 l -0.01714,-2.388644 c 0,-1.139763 0.10912,-2.778849 -0.714709,-3.690088 -0.661576,-0.666147 -1.669937,-0.810688 -3.299883,-0.810688 H 75.04663 v 6.88942 H 70.519575 V 25.857296 h 10.413256 c 2.313803,0 4.01859,0.06113 5.482285,0.90724 1.432273,0.846109 2.290951,2.08128 2.290951,4.193982 0,0 0,-2.112702 10e-7,0 z m 7.245346,13.83997 H 91.331806 V 25.857296 h 4.619608 z m 53.593396,0 H 143.129 L 134.54736,30.582025 V 44.798488 H 125.327 l -1.76192,-4.224833 h -9.40489 l -1.70936,4.224833 h -5.29775 c -2.20069,0 -4.98696,-0.486755 -6.56492,-2.094991 -1.591096,-1.608236 -2.418923,-3.786639 -2.418923,-7.231063 0,-2.809129 0.494754,-5.377165 2.440633,-7.406456 1.4637,-1.511684 3.75579,-2.208682 6.87571,-2.208682 h 4.38308 v 4.058582 h -4.2911 c -1.65223,0 -2.58517,0.245663 -3.48384,1.122052 -0.77184,0.797548 -1.30145,2.305234 -1.30145,4.290534 0,2.029291 0.40335,3.492414 1.24489,4.448215 0.69699,0.749558 1.96359,0.976939 3.15534,0.976939 h 2.03329 l 6.38095,-14.89575 h 6.78373 l 7.66526,17.915691 V 25.857868 h 6.89342 l 7.95834,13.191534 V 25.857868 h 4.63732 z M 5.713094e-4,48.518855 H 7.7361006 l 1.7442076,-4.207122 h 3.9048998 l 1.739637,4.207122 h 15.220254 v -3.216472 l 1.358573,3.230183 h 7.901209 l 1.358574,-3.278173 v 3.264462 h 37.825253 l -0.01771,-6.905988 h 0.731848 c 0.512464,0.01771 0.662147,0.06513 0.662147,0.911238 v 5.99475 H 99.728341 V 46.91119 c 1.577959,0.845538 4.032299,1.607665 7.261909,1.607665 h 8.23029 l 1.76134,-4.207122 h 3.9049 l 1.7225,4.207122 h 15.86012 v -3.996309 l 2.40179,3.996309 h 12.70934 V 22.101508 h -12.57794 v 3.119921 l -1.76135,-3.119921 h -12.90645 v 3.119921 l -1.61738,-3.119921 h -17.4335 c -2.91825,0 -5.48343,0.407344 -7.555569,1.542536 V 22.101508 H 87.697708 v 1.542536 c -1.318582,-1.170042 -3.11535,-1.542536 -5.113219,-1.542536 H 38.631943 l -2.9491,6.823149 -3.028511,-6.823149 H 18.810363 v 3.119921 L 17.289537,22.101508 H 5.4828573 L 0,34.661746 V 48.518855 Z M 161.03955,62.466803 h -8.25142 c -0.82383,0 -1.37114,0.03085 -1.83219,0.342214 -0.47762,0.306793 -0.66158,0.762127 -0.66158,1.363144 0,0.714708 0.40335,1.200893 0.99008,1.411135 0.47762,0.16625 0.99065,0.214812 1.74478,0.214812 l 2.45378,0.0657 c 2.47605,0.06113 4.12885,0.486756 5.13664,1.524825 0.18339,0.144541 0.29365,0.306793 0.41991,0.469045 z m 0,12.490537 c -1.09977,1.608236 -3.24275,2.423495 -6.14386,2.423495 h -8.74332 v -4.062582 h 8.7079 c 0.86382,0 1.46826,-0.11369 1.83219,-0.469045 0.31536,-0.293081 0.53531,-0.718707 0.53531,-1.235742 0,-0.551885 -0.21995,-0.990079 -0.55302,-1.252881 -0.32851,-0.289083 -0.80669,-0.420484 -1.5951,-0.420484 -4.25111,-0.144541 -9.55458,0.131401 -9.55458,-5.86392 0,-2.747998 1.74478,-5.640537 6.49579,-5.640537 h 9.01812 v -3.7695 h -8.37882 c -2.52862,0 -4.36538,0.605588 -5.66625,1.547106 v -1.547106 h -12.39342 c -1.98187,0 -4.30824,0.491326 -5.40858,1.547106 v -1.547106 h -22.13139 v 1.547106 c -1.76134,-1.270592 -4.73329,-1.547106 -6.10501,-1.547106 H 86.357415 V 56.21325 C 84.963991,54.863817 81.865209,54.666144 79.97646,54.666144 H 63.638725 l -3.738648,4.046013 -3.501556,-4.046013 H 31.993326 v 26.435629 h 23.945862 l 3.85234,-4.11 3.628957,4.11 14.76035,0.01314 V 74.89621 h 1.451126 c 1.958448,0.03028 4.268252,-0.04856 6.306113,-0.92952 v 7.134511 H 98.112677 V 74.21121 h 0.587306 c 0.749558,0 0.823257,0.03085 0.823257,0.779837 v 6.109583 h 36.98428 c 2.34809,0 4.80243,-0.601017 6.16158,-1.691647 v 1.691647 h 11.73126 c 2.44121,0 4.82528,-0.342214 6.63919,-1.218603 z m -18.05966,-7.568707 c 0.88153,0.912381 1.354,2.064141 1.354,4.01402 0,4.075721 -2.54632,5.978182 -7.11223,5.978182 h -8.81816 v -4.062582 h 8.78274 c 0.85868,0 1.46769,-0.11369 1.84933,-0.469045 0.31136,-0.293081 0.53474,-0.718707 0.53474,-1.235742 0,-0.551885 -0.24166,-0.990079 -0.55245,-1.252881 -0.34622,-0.289083 -0.82383,-0.420484 -1.61224,-0.420484 -4.23397,-0.144541 -9.53629,0.131401 -9.53629,-5.86392 0,-2.747998 1.72649,-5.640537 6.47293,-5.640537 h 9.07639 v 4.032301 h -8.30512 c -0.82326,0 -1.35857,0.03085 -1.81391,0.342215 -0.49589,0.306793 -0.67986,0.762126 -0.67986,1.363144 0,0.714708 0.42106,1.200892 0.99065,1.411134 0.47762,0.166251 0.99066,0.214812 1.76192,0.214812 l 2.43721,0.0657 c 2.45777,0.05999 4.14485,0.485042 5.17035,1.523682 0,0 -1.0255,-1.03864 0,0 v 0 0 z M 102.1267,66.218592 c -0.60559,0.359353 -1.35458,0.390204 -2.235537,0.390204 h -5.499995 v -4.255113 h 5.574837 c 0.806115,0 1.612805,0.01714 2.160695,0.342215 0.58673,0.306793 0.93752,0.893528 0.93752,1.704216 0,0.810688 -0.35079,1.463694 -0.93752,1.818478 0,0 0.58673,-0.354784 0,0 z m 2.73428,2.357793 c 1.00779,0.371923 1.83162,1.038641 2.21783,1.590526 0.63929,0.92495 0.73184,1.788198 0.75013,3.458136 v 3.755788 h -4.54534 v -2.370363 c 0,-1.139762 0.10969,-2.82741 -0.73185,-3.708369 -0.66157,-0.678716 -1.66994,-0.840968 -3.321592,-0.840968 h -4.838419 v 6.9197 H 89.842402 V 58.435072 h 10.452678 c 2.29209,0 3.96146,0.101122 5.44743,0.894099 1.42885,0.863249 2.32752,2.045859 2.32752,4.207123 -5.7e-4,3.023941 -2.01729,4.567047 -3.20905,5.040091 0,0 1.19176,-0.473044 0,0 z m 5.71938,-10.141313 h 15.11056 v 3.91804 h -10.60178 v 3.444425 h 10.34298 v 3.865479 h -10.34298 v 3.769499 l 10.60178,0.01714 v 3.93118 h -15.11056 z m -30.546198,8.743319 h -5.850779 v -4.824708 h 5.90334 c 1.634516,0 2.769136,0.666147 2.769136,2.322944 0,1.638516 -1.08206,2.501764 -2.821697,2.501764 z m -10.360124,8.479374 -6.951122,-7.717247 6.951122,-7.472156 z M 51.722925,73.432515 H 40.591533 v -3.769499 h 9.939641 v -3.865479 h -9.939641 v -3.444425 h 11.350775 l 4.95211,5.521134 z M 87.71656,64.676627 c 0,5.262903 -3.92661,6.349533 -7.88407,6.349533 h -5.649107 v 6.354675 H 65.383504 L 59.808667,71.109 54.015018,77.380835 H 36.081616 V 58.435072 h 18.209345 l 5.570266,6.210133 5.758799,-6.210133 h 14.466697 c 3.592965,0 7.629837,0.99465 7.629837,6.241555 0,0 0,-5.246905 0,0 z m 0,0" />
    </g>
  </g>
</svg>
