<?xml version="1.0" encoding="UTF-8" standalone="no"?>
<svg
   xmlns:dc="http://purl.org/dc/elements/1.1/"
   xmlns:cc="http://creativecommons.org/ns#"
   xmlns:rdf="http://www.w3.org/1999/02/22-rdf-syntax-ns#"
   xmlns:svg="http://www.w3.org/2000/svg"
   xmlns="http://www.w3.org/2000/svg"
   xmlns:sodipodi="http://sodipodi.sourceforge.net/DTD/sodipodi-0.dtd"
   xmlns:inkscape="http://www.inkscape.org/namespaces/inkscape"
   height="100px"
   version="1.1"
   viewBox="0 0 160 100"
   width="160px"
   id="svg2"
   inkscape:version="0.91 r13725"
   sodipodi:docname="card-logo-amex.svg"
   inkscape:export-filename="/home/rafael/github/controlle_assets/lib/images/amex2.png"
   inkscape:export-xdpi="90"
   inkscape:export-ydpi="90">
  <metadata
     id="metadata14">
    <rdf:RDF>
      <cc:Work
         rdf:about="">
        <dc:format>image/svg+xml</dc:format>
        <dc:type
           rdf:resource="http://purl.org/dc/dcmitype/StillImage" />
      </cc:Work>
    </rdf:RDF>
  </metadata>
  <sodipodi:namedview
     pagecolor="#ffffff"
     bordercolor="#666666"
     borderopacity="1"
     objecttolerance="10"
     gridtolerance="10"
     guidetolerance="10"
     inkscape:pageopacity="0"
     inkscape:pageshadow="2"
     inkscape:window-width="1301"
     inkscape:window-height="744"
     id="namedview12"
     showgrid="false"
     inkscape:zoom="1.8375"
     inkscape:cx="-43.809524"
     inkscape:cy="50"
     inkscape:window-x="65"
     inkscape:window-y="24"
     inkscape:window-maximized="1"
     inkscape:current-layer="svg2" />
  <title
     id="title4" />
  <defs
     id="defs6" />
  <rect
     style="fill:#306fc5;fill-opacity:1"
     id="rect3342"
     width="161.63266"
     height="101.22449"
     x="-1.0884435"
     y="-1.2244898" />
  <g
     style="fill:none;fill-rule:evenodd;stroke:none;stroke-width:1"
     transform="matrix(0.85130623,0,0,0.86938776,12.912528,3.4421773)"
     id="g3344">
    <g
       transform="translate(-1,0)"
       id="g3346">
      <path
         style="fill:#306fc5"
         inkscape:connector-curvature="0"
         id="path3348"
         d="m 149,1.0114669e-6 c -8,7.54979e-7 -92.699219,-2.6146506e-6 -140,0 C 5,1.2325753e-6 1,4.000001 1,8.000001 l 0,80 c -4.6e-7,8 4,11.999999 12,11.999999 44.62321,0 128,0 136,0 8,0 12,-3.999999 12,-11.999999 l 0,-76 C 161,4.000001 157,1.0114669e-6 149,1.0114669e-6 Z m 0,0" />
      <path
         style="fill:#ffffff"
         inkscape:connector-curvature="0"
         id="path3350"
         d="m 14.519828,36.625336 -3.098782,-7.550996 -3.0810714,7.550996 6.1798534,0 z m 68.265761,-3.006801 c -0.622157,0.377635 -1.358003,0.390204 -2.239533,0.390204 l -5.499996,0 0,-4.207122 5.574837,0 c 0.788978,0 1.612235,0.03542 2.146981,0.341642 0.587306,0.275943 0.950659,0.863249 0.950659,1.674508 0,0.827828 -0.345643,1.493974 -0.932948,1.800768 0,0 0.587305,-0.306794 0,0 l 0,0 0,0 z m 39.236381,3.006801 -3.13306,-7.550996 -3.11592,7.550996 6.24898,0 0,0 0,0 0,0 z m -73.139024,8.173152 -4.641317,0 -0.01714,-14.83462 -6.564916,14.83462 -3.975171,0 -6.582055,-14.84776 0,14.84776 -9.208365,0 -1.739637,-4.224833 -9.4266055,0 -1.7573477,4.224833 -4.91726003,0 8.10745173,-18.941192 6.7265965,0 7.700108,17.933402 0,-17.933402 7.389316,0 5.92505,12.84932 5.442865,-12.84932 7.537856,0 0,18.941192 0,0 5.71e-4,0 0,0 z m 18.498427,0 -15.124274,0 0,-18.941192 15.124274,0 0,3.944321 -10.596647,0 0,3.414144 10.342414,0 0,3.882619 -10.342414,0 0,3.78264 10.596647,0 0,3.917468 0,0 0,0 0,0 z m 21.324695,-13.83997 c 0,3.019941 -2.01558,4.580187 -3.190192,5.048661 0.990651,0.377064 1.83676,1.043211 2.239533,1.595096 0.639295,0.942089 0.749558,1.783628 0.749558,3.475275 l 0,3.720938 -4.566476,0 -0.01714,-2.388644 c 0,-1.139763 0.10912,-2.778849 -0.714709,-3.690088 -0.661576,-0.666147 -1.669937,-0.810688 -3.299883,-0.810688 l -4.860129,0 0,6.88942 -4.527055,0 0,-18.941192 10.413256,0 c 2.313803,0 4.01859,0.06113 5.482285,0.90724 1.432273,0.846109 2.290951,2.08128 2.290951,4.193982 0,0 0,-2.112702 0,0 l 0,0 0,0 z m 7.245346,13.83997 -4.619608,0 0,-18.941192 4.619608,0 0,18.941192 0,0 0,0 0,0 z m 53.593396,0 -6.41581,0 -8.58164,-14.216463 0,14.216463 -9.22036,0 -1.76192,-4.224833 -9.40489,0 -1.70936,4.224833 -5.29775,0 c -2.20069,0 -4.98696,-0.486755 -6.56492,-2.094991 -1.591096,-1.608236 -2.418923,-3.786639 -2.418923,-7.231063 0,-2.809129 0.494754,-5.377165 2.440633,-7.406456 1.4637,-1.511684 3.75579,-2.208682 6.87571,-2.208682 l 4.38308,0 0,4.058582 -4.2911,0 c -1.65223,0 -2.58517,0.245663 -3.48384,1.122052 -0.77184,0.797548 -1.30145,2.305234 -1.30145,4.290534 0,2.029291 0.40335,3.492414 1.24489,4.448215 0.69699,0.749558 1.96359,0.976939 3.15534,0.976939 l 2.03329,0 6.38095,-14.89575 6.78373,0 7.66526,17.915691 0,-17.915691 6.89342,0 7.95834,13.191534 0,-13.191534 4.63732,0 0,18.94062 0,0 0,0 0,0 z M 5.713094e-4,48.518855 l 7.7355292906,0 1.7442076,-4.207122 3.9048998,0 1.739637,4.207122 15.220254,0 0,-3.216472 1.358573,3.230183 7.901209,0 1.358574,-3.278173 0,3.264462 37.825253,0 -0.01771,-6.905988 0.731848,0 c 0.512464,0.01771 0.662147,0.06513 0.662147,0.911238 l 0,5.99475 19.563348,0 0,-1.607665 c 1.577959,0.845538 4.032299,1.607665 7.261909,1.607665 l 8.23029,0 1.76134,-4.207122 3.9049,0 1.7225,4.207122 15.86012,0 0,-3.996309 2.40179,3.996309 12.70934,0 0,-26.417347 -12.57794,0 0,3.119921 -1.76135,-3.119921 -12.90645,0 0,3.119921 -1.61738,-3.119921 -17.4335,0 c -2.91825,0 -5.48343,0.407344 -7.555569,1.542536 l 0,-1.542536 -12.030633,0 0,1.542536 c -1.318582,-1.170042 -3.11535,-1.542536 -5.113219,-1.542536 l -43.952546,0 -2.9491,6.823149 -3.028511,-6.823149 -13.843969,0 0,3.119921 -1.520826,-3.119921 -11.8066797,0 L 0,34.661746 l 0,13.857109 5.713094e-4,0 z M 161.03955,62.466803 l -8.25142,0 c -0.82383,0 -1.37114,0.03085 -1.83219,0.342214 -0.47762,0.306793 -0.66158,0.762127 -0.66158,1.363144 0,0.714708 0.40335,1.200893 0.99008,1.411135 0.47762,0.16625 0.99065,0.214812 1.74478,0.214812 l 2.45378,0.0657 c 2.47605,0.06113 4.12885,0.486756 5.13664,1.524825 0.18339,0.144541 0.29365,0.306793 0.41991,0.469045 l 0,-5.390875 z m 0,12.490537 c -1.09977,1.608236 -3.24275,2.423495 -6.14386,2.423495 l -8.74332,0 0,-4.062582 8.7079,0 c 0.86382,0 1.46826,-0.11369 1.83219,-0.469045 0.31536,-0.293081 0.53531,-0.718707 0.53531,-1.235742 0,-0.551885 -0.21995,-0.990079 -0.55302,-1.252881 -0.32851,-0.289083 -0.80669,-0.420484 -1.5951,-0.420484 -4.25111,-0.144541 -9.55458,0.131401 -9.55458,-5.86392 0,-2.747998 1.74478,-5.640537 6.49579,-5.640537 l 9.01812,0 0,-3.7695 -8.37882,0 c -2.52862,0 -4.36538,0.605588 -5.66625,1.547106 l 0,-1.547106 -12.39342,0 c -1.98187,0 -4.30824,0.491326 -5.40858,1.547106 l 0,-1.547106 -22.13139,0 0,1.547106 c -1.76134,-1.270592 -4.73329,-1.547106 -6.10501,-1.547106 l -14.598095,0 0,1.547106 C 84.963991,54.863817 81.865209,54.666144 79.97646,54.666144 l -16.337735,0 -3.738648,4.046013 -3.501556,-4.046013 -24.405195,0 0,26.435629 23.945862,0 3.85234,-4.11 3.628957,4.11 14.76035,0.01314 0,-6.218703 1.451126,0 c 1.958448,0.03028 4.268252,-0.04856 6.306113,-0.92952 l 0,7.134511 12.174603,0 0,-6.889991 0.587306,0 c 0.749558,0 0.823257,0.03085 0.823257,0.779837 l 0,6.109583 36.98428,0 c 2.34809,0 4.80243,-0.601017 6.16158,-1.691647 l 0,1.691647 11.73126,0 c 2.44121,0 4.82528,-0.342214 6.63919,-1.218603 l 0,-4.924687 0,0 0,0 0,0 z m -18.05966,-7.568707 c 0.88153,0.912381 1.354,2.064141 1.354,4.01402 0,4.075721 -2.54632,5.978182 -7.11223,5.978182 l -8.81816,0 0,-4.062582 8.78274,0 c 0.85868,0 1.46769,-0.11369 1.84933,-0.469045 0.31136,-0.293081 0.53474,-0.718707 0.53474,-1.235742 0,-0.551885 -0.24166,-0.990079 -0.55245,-1.252881 -0.34622,-0.289083 -0.82383,-0.420484 -1.61224,-0.420484 -4.23397,-0.144541 -9.53629,0.131401 -9.53629,-5.86392 0,-2.747998 1.72649,-5.640537 6.47293,-5.640537 l 9.07639,0 0,4.032301 -8.30512,0 c -0.82326,0 -1.35857,0.03085 -1.81391,0.342215 -0.49589,0.306793 -0.67986,0.762126 -0.67986,1.363144 0,0.714708 0.42106,1.200892 0.99065,1.411134 0.47762,0.166251 0.99066,0.214812 1.76192,0.214812 l 2.43721,0.0657 c 2.45777,0.05999 4.14485,0.485042 5.17035,1.523682 0,0 -1.0255,-1.03864 0,0 l 0,0 0,0 z M 102.1267,66.218592 c -0.60559,0.359353 -1.35458,0.390204 -2.235537,0.390204 l -5.499995,0 0,-4.255113 5.574837,0 c 0.806115,0 1.612805,0.01714 2.160695,0.342215 0.58673,0.306793 0.93752,0.893528 0.93752,1.704216 0,0.810688 -0.35079,1.463694 -0.93752,1.818478 0,0 0.58673,-0.354784 0,0 l 0,0 0,0 z m 2.73428,2.357793 c 1.00779,0.371923 1.83162,1.038641 2.21783,1.590526 0.63929,0.92495 0.73184,1.788198 0.75013,3.458136 l 0,3.755788 -4.54534,0 0,-2.370363 c 0,-1.139762 0.10969,-2.82741 -0.73185,-3.708369 -0.66157,-0.678716 -1.66994,-0.840968 -3.321592,-0.840968 l -4.838419,0 0,6.9197 -4.549337,0 0,-18.945763 10.452678,0 c 2.29209,0 3.96146,0.101122 5.44743,0.894099 1.42885,0.863249 2.32752,2.045859 2.32752,4.207123 -5.7e-4,3.023941 -2.01729,4.567047 -3.20905,5.040091 0,0 1.19176,-0.473044 0,0 l 0,0 0,0 z m 5.71938,-10.141313 15.11056,0 0,3.91804 -10.60178,0 0,3.444425 10.34298,0 0,3.865479 -10.34298,0 0,3.769499 10.60178,0.01714 0,3.93118 -15.11056,0 0,-18.945763 0,0 0,0 0,0 z m -30.546198,8.743319 -5.850779,0 0,-4.824708 5.90334,0 c 1.634516,0 2.769136,0.666147 2.769136,2.322944 0,1.638516 -1.08206,2.501764 -2.821697,2.501764 l 0,0 0,0 0,0 z m -10.360124,8.479374 -6.951122,-7.717247 6.951122,-7.472156 0,15.189403 0,0 0,0 0,0 z m -17.951113,-2.22525 -11.131392,0 0,-3.769499 9.939641,0 0,-3.865479 -9.939641,0 0,-3.444425 11.350775,0 4.95211,5.521134 -5.171493,5.558269 0,0 0,0 0,0 z M 87.71656,64.676627 c 0,5.262903 -3.92661,6.349533 -7.88407,6.349533 l -5.649107,0 0,6.354675 -8.799879,0 -5.574837,-6.271835 -5.793649,6.271835 -17.933402,0 0,-18.945763 18.209345,0 5.570266,6.210133 5.758799,-6.210133 14.466697,0 c 3.592965,0 7.629837,0.99465 7.629837,6.241555 0,0 0,-5.246905 0,0 l 0,0 0,0 z m 0,0" />
    </g>
  </g>
</svg>
